<svg width="16" height="16" viewBox="0 0 16 16" fill="none" xmlns="http://www.w3.org/2000/svg">
<path d="M8.75 11.25C8.75 11.3983 8.70601 11.5433 8.6236 11.6667C8.54119 11.79 8.42406 11.8861 8.28701 11.9429C8.14997 11.9997 7.99917 12.0145 7.85368 11.9856C7.70819 11.9566 7.57456 11.8852 7.46967 11.7803C7.36478 11.6754 7.29335 11.5418 7.26441 11.3963C7.23547 11.2508 7.25032 11.1 7.30709 10.963C7.36385 10.8259 7.45998 10.7088 7.58332 10.6264C7.70666 10.544 7.85166 10.5 8 10.5C8.19891 10.5 8.38968 10.579 8.53033 10.7197C8.67098 10.8603 8.75 11.0511 8.75 11.25ZM8 4.5C6.62125 4.5 5.5 5.50937 5.5 6.75V7C5.5 7.13261 5.55268 7.25978 5.64645 7.35355C5.74021 7.44732 5.86739 7.5 6 7.5C6.13261 7.5 6.25978 7.44732 6.35355 7.35355C6.44732 7.25978 6.5 7.13261 6.5 7V6.75C6.5 6.0625 7.17312 5.5 8 5.5C8.82687 5.5 9.5 6.0625 9.5 6.75C9.5 7.4375 8.82687 8 8 8C7.86739 8 7.74021 8.05268 7.64645 8.14645C7.55268 8.24021 7.5 8.36739 7.5 8.5V9C7.5 9.13261 7.55268 9.25979 7.64645 9.35355C7.74021 9.44732 7.86739 9.5 8 9.5C8.13261 9.5 8.25978 9.44732 8.35355 9.35355C8.44732 9.25979 8.5 9.13261 8.5 9V8.955C9.64 8.74562 10.5 7.83625 10.5 6.75C10.5 5.50937 9.37875 4.5 8 4.5ZM14.5 8C14.5 9.28558 14.1188 10.5423 13.4046 11.6112C12.6903 12.6801 11.6752 13.5132 10.4874 14.0052C9.29972 14.4972 7.99279 14.6259 6.73191 14.3751C5.47104 14.1243 4.31285 13.5052 3.4038 12.5962C2.49476 11.6872 1.8757 10.529 1.62489 9.26809C1.37409 8.00721 1.50281 6.70028 1.99478 5.51256C2.48675 4.32484 3.31987 3.30968 4.38879 2.59545C5.45771 1.88122 6.71442 1.5 8 1.5C9.72335 1.50182 11.3756 2.18722 12.5942 3.40582C13.8128 4.62441 14.4982 6.27665 14.5 8ZM13.5 8C13.5 6.9122 13.1774 5.84883 12.5731 4.94436C11.9687 4.03989 11.1098 3.33494 10.1048 2.91866C9.09976 2.50238 7.9939 2.39346 6.927 2.60568C5.86011 2.8179 4.8801 3.34172 4.11091 4.11091C3.34172 4.8801 2.8179 5.86011 2.60568 6.927C2.39346 7.9939 2.50238 9.09977 2.91866 10.1048C3.33494 11.1098 4.03989 11.9687 4.94436 12.5731C5.84883 13.1774 6.9122 13.5 8 13.5C9.45818 13.4983 10.8562 12.9184 11.8873 11.8873C12.9184 10.8562 13.4983 9.45818 13.5 8Z" fill="#6D767E"/>
</svg>
