<svg width="17" height="11" viewBox="0 0 17 11" fill="none" xmlns="http://www.w3.org/2000/svg">
<path d="M8.20508 10.2567C12.8984 10.2567 16.1445 6.45984 16.1445 5.27625C16.1445 4.08679 12.8926 0.295776 8.20508 0.295776C3.57031 0.295776 0.259766 4.08679 0.259766 5.27625C0.259766 6.45984 3.57031 10.2567 8.20508 10.2567ZM8.20508 8.53992C6.37695 8.53992 4.92969 7.0575 4.92383 5.27625C4.91797 3.44812 6.37695 2.01257 8.20508 2.01257C10.0156 2.01257 11.4805 3.44812 11.4805 5.27625C11.4805 7.0575 10.0156 8.53992 8.20508 8.53992ZM8.20508 6.45398C8.85547 6.45398 9.39453 5.92078 9.39453 5.27625C9.39453 4.62585 8.85547 4.09265 8.20508 4.09265C7.54883 4.09265 7.00977 4.62585 7.00977 5.27625C7.00977 5.92078 7.54883 6.45398 8.20508 6.45398Z" fill="#698096"/>
</svg>
