<svg width="24" height="24" viewBox="0 0 24 24" fill="none" xmlns="http://www.w3.org/2000/svg">
<rect y="0.000854492" width="24" height="24" rx="12" fill="#00A86B"/>
<path d="M6.24316 11.5653C6.24316 11.9003 6.52344 12.1737 6.85156 12.1737H11.2744V16.5966C11.2744 16.9247 11.5479 17.205 11.8828 17.205C12.2178 17.205 12.498 16.9247 12.498 16.5966V12.1737H16.9141C17.2422 12.1737 17.5225 11.9003 17.5225 11.5653C17.5225 11.2303 17.2422 10.9501 16.9141 10.9501H12.498V6.53406C12.498 6.20593 12.2178 5.92566 11.8828 5.92566C11.5479 5.92566 11.2744 6.20593 11.2744 6.53406V10.9501H6.85156C6.52344 10.9501 6.24316 11.2303 6.24316 11.5653Z" fill="white"/>
</svg>
