<svg width="32" height="33" viewBox="0 0 32 33" fill="none" xmlns="http://www.w3.org/2000/svg">
<g id="Clock">
<path id="Vector" d="M16 4.17285C13.4288 4.17285 10.9154 4.93529 8.77759 6.36375C6.63975 7.7922 4.97351 9.82253 3.98957 12.198C3.00563 14.5734 2.74819 17.1873 3.2498 19.709C3.75141 22.2308 4.98953 24.5472 6.80762 26.3652C8.6257 28.1833 10.9421 29.4215 13.4638 29.9231C15.9856 30.4247 18.5995 30.1672 20.9749 29.1833C23.3503 28.1993 25.3807 26.5331 26.8091 24.3953C28.2376 22.2574 29 19.744 29 17.1729C28.9964 13.7262 27.6256 10.4217 25.1884 7.98448C22.7512 5.5473 19.4467 4.17649 16 4.17285ZM23 18.1729H16C15.7348 18.1729 15.4804 18.0675 15.2929 17.88C15.1054 17.6924 15 17.4381 15 17.1729V10.1729C15 9.90764 15.1054 9.65328 15.2929 9.46574C15.4804 9.27821 15.7348 9.17285 16 9.17285C16.2652 9.17285 16.5196 9.27821 16.7071 9.46574C16.8946 9.65328 17 9.90764 17 10.1729V16.1729H23C23.2652 16.1729 23.5196 16.2782 23.7071 16.4657C23.8946 16.6533 24 16.9076 24 17.1729C24 17.4381 23.8946 17.6924 23.7071 17.88C23.5196 18.0675 23.2652 18.1729 23 18.1729Z" fill="url(#paint0_linear_7118_34518)"/>
</g>
<defs>
<linearGradient id="paint0_linear_7118_34518" x1="16" y1="4.17285" x2="16" y2="30.1729" gradientUnits="userSpaceOnUse">
<stop stop-color="#5A9968"/>
<stop offset="1" stop-color="#355C77"/>
</linearGradient>
</defs>
</svg>
