<svg width="56" height="57" viewBox="0 0 56 57" fill="none" xmlns="http://www.w3.org/2000/svg">
<path d="M28 50.9723H7.4137C6.72773 50.9723 6.05385 50.7917 5.45979 50.4487C4.86573 50.1057 4.37241 49.6124 4.02943 49.0183C3.68644 48.4243 3.50587 47.7504 3.50586 47.0644C3.50585 46.3784 3.68641 45.7045 4.02938 45.1105L14.3225 27.2822L24.6157 9.45396C24.9587 8.85988 25.452 8.36654 26.046 8.02355C26.6401 7.68055 27.314 7.49998 28 7.49998C28.686 7.49998 29.3599 7.68055 29.954 8.02355C30.548 8.36654 31.0413 8.85988 31.3843 9.45396L41.6775 27.2822L51.9706 45.1105C52.3136 45.7045 52.4942 46.3784 52.4941 47.0644C52.4941 47.7504 52.3136 48.4243 51.9706 49.0183C51.6276 49.6124 51.1343 50.1057 50.5402 50.4487C49.9461 50.7917 49.2723 50.9723 48.5863 50.9723H28Z" fill="#F5DC3D"/>
<path d="M29.75 24.125C29.75 23.1585 28.9665 22.375 28 22.375C27.0335 22.375 26.25 23.1585 26.25 24.125V36.375C26.25 37.3415 27.0335 38.125 28 38.125C28.9665 38.125 29.75 37.3415 29.75 36.375V24.125Z" fill="#5F5F5F"/>
<path d="M28 44.25C28.9665 44.25 29.75 43.4665 29.75 42.5C29.75 41.5335 28.9665 40.75 28 40.75C27.0335 40.75 26.25 41.5335 26.25 42.5C26.25 43.4665 27.0335 44.25 28 44.25Z" fill="#5F5F5F"/>
</svg>
